<?xml version="1.0" encoding="utf-8"?>
<!-- Generator: Adobe Illustrator 27.5.0, SVG Export Plug-In . SVG Version: 6.00 Build 0)  -->
<svg version="1.1" xmlns="http://www.w3.org/2000/svg" xmlns:xlink="http://www.w3.org/1999/xlink" x="0px" y="0px"
	 viewBox="0 0 500 500" style="enable-background:new 0 0 500 500;" xml:space="preserve">
<g id="BACKGROUND">
	<g>
		<rect style="fill:#DBECFD;" width="500" height="500"/>
	</g>
</g>
<g id="Layer_1">
	<g>
		<g>
			<g>
				<path style="fill:#211066;" d="M430.833,400.168c0,2.972-72.596,5.381-162.148,5.381s-162.148-2.409-162.148-5.381
					c0-2.972,72.596-5.381,162.148-5.381S430.833,397.196,430.833,400.168z"/>
			</g>
		</g>
		<g>
			<path style="fill:#D2DAF9;" d="M54.952,396h377.113c20.826-30.281,27.202-70.234,16.373-105.407
				c-5.888-19.126-16.46-36.754-20.397-56.375c-4.246-21.164-0.469-43.017-0.681-64.602c-0.212-21.585-5.742-45.209-23.19-57.919
				c-22.888-16.672-55.843-7.854-81.911-18.914c-14.95-6.343-26.49-18.765-40.784-26.472c-25.146-13.558-55.702-11.119-83.82-6.071
				c-23.238,4.171-46.671,10.069-66.602,22.726c-19.93,12.657-36.073,33.094-38.517,56.577c-1.415,13.592,1.739,27.19,2.869,40.808
				c1.131,13.618-0.169,28.449-8.948,38.921c-5.688,6.786-13.932,11.006-19.805,17.631c-12.401,13.989-11.597,35.154-7.734,53.445
				c1.361,6.444,3.02,12.823,4.963,19.114c5.768,18.671,4.905,38.743-2.828,56.69C57.002,375.555,54.832,385.756,54.952,396z"/>
		</g>
		<g>
			<g>
				<ellipse style="fill:#98ACEA;" cx="243.562" cy="397.389" rx="193.225" ry="16.671"/>
			</g>
		</g>
		<g>
			<g>
				<path style="fill:#98ACEA;" d="M381.742,301.925H137.38c-6.867,0-12.434-5.567-12.434-12.434V124.656
					c0-6.867,5.567-12.434,12.434-12.434h244.361c6.867,0,12.434,5.567,12.434,12.434v164.835
					C394.176,296.358,388.609,301.925,381.742,301.925z"/>
			</g>
			<g>
				<g>
					<path style="fill:#FFFFFF;" d="M377.033,296.32H132.672c-6.867,0-12.435-5.567-12.435-12.434V119.05
						c0-6.867,5.567-12.434,12.435-12.434h244.361c6.867,0,12.435,5.567,12.435,12.434v164.835
						C389.467,290.753,383.9,296.32,377.033,296.32z"/>
				</g>
				<g>
					<g>
						<path style="fill:#4FC6F1;" d="M389.467,138.702V119.05c0-6.867-5.567-12.434-12.434-12.434H132.672
							c-6.867,0-12.435,5.567-12.435,12.434v19.652H389.467z"/>
					</g>
					<g>
						<rect x="216.132" y="123.926" style="fill:#FFFFFF;" width="83.859" height="10.763"/>
					</g>
				</g>
				<g>
					<g>
						<g>
							<path style="fill:#5F45AA;" d="M162.522,115.453c0,2.864-2.322,5.186-5.186,5.186c-2.864,0-5.186-2.322-5.186-5.186
								c0-2.864,2.322-5.186,5.186-5.186C160.2,110.268,162.522,112.589,162.522,115.453z"/>
						</g>
						<g>
							<path style="fill:#FFFFFF;" d="M157.502,117.47h-0.043c-1.181,0-2.139-0.958-2.139-2.139V100.04
								c0-1.181,0.958-2.139,2.139-2.139h0.043c1.181,0,2.139,0.958,2.139,2.139v15.291
								C159.641,116.512,158.683,117.47,157.502,117.47z"/>
						</g>
					</g>
					<g>
						<g>
							<path style="fill:#5F45AA;" d="M195.365,115.453c0,2.864-2.322,5.186-5.186,5.186c-2.864,0-5.186-2.322-5.186-5.186
								c0-2.864,2.322-5.186,5.186-5.186C193.043,110.268,195.365,112.589,195.365,115.453z"/>
						</g>
						<g>
							<path style="fill:#FFFFFF;" d="M190.344,117.47h-0.043c-1.181,0-2.139-0.958-2.139-2.139V100.04
								c0-1.181,0.958-2.139,2.139-2.139h0.043c1.181,0,2.139,0.958,2.139,2.139v15.291
								C192.484,116.512,191.526,117.47,190.344,117.47z"/>
						</g>
					</g>
					<g>
						<g>
							<path style="fill:#5F45AA;" d="M228.207,115.453c0,2.864-2.322,5.186-5.186,5.186c-2.864,0-5.186-2.322-5.186-5.186
								c0-2.864,2.322-5.186,5.186-5.186C225.885,110.268,228.207,112.589,228.207,115.453z"/>
						</g>
						<g>
							<path style="fill:#FFFFFF;" d="M223.187,117.47h-0.043c-1.181,0-2.139-0.958-2.139-2.139V100.04
								c0-1.181,0.958-2.139,2.139-2.139h0.043c1.181,0,2.139,0.958,2.139,2.139v15.291
								C225.326,116.512,224.368,117.47,223.187,117.47z"/>
						</g>
					</g>
					<g>
						<g>
							<path style="fill:#5F45AA;" d="M261.049,115.453c0,2.864-2.322,5.186-5.186,5.186c-2.864,0-5.186-2.322-5.186-5.186
								c0-2.864,2.322-5.186,5.186-5.186C258.728,110.268,261.049,112.589,261.049,115.453z"/>
						</g>
						<g>
							<path style="fill:#FFFFFF;" d="M256.029,117.47h-0.043c-1.181,0-2.139-0.958-2.139-2.139V100.04
								c0-1.181,0.958-2.139,2.139-2.139h0.043c1.181,0,2.139,0.958,2.139,2.139v15.291
								C258.169,116.512,257.211,117.47,256.029,117.47z"/>
						</g>
					</g>
					<g>
						<g>
							<path style="fill:#5F45AA;" d="M293.892,115.453c0,2.864-2.322,5.186-5.186,5.186c-2.864,0-5.186-2.322-5.186-5.186
								c0-2.864,2.322-5.186,5.186-5.186C291.57,110.268,293.892,112.589,293.892,115.453z"/>
						</g>
						<g>
							<path style="fill:#FFFFFF;" d="M288.872,117.47h-0.043c-1.181,0-2.139-0.958-2.139-2.139V100.04
								c0-1.181,0.958-2.139,2.139-2.139h0.043c1.181,0,2.139,0.958,2.139,2.139v15.291
								C291.011,116.512,290.053,117.47,288.872,117.47z"/>
						</g>
					</g>
					<g>
						<g>
							<path style="fill:#5F45AA;" d="M326.734,115.453c0,2.864-2.322,5.186-5.186,5.186c-2.864,0-5.186-2.322-5.186-5.186
								c0-2.864,2.322-5.186,5.186-5.186C324.413,110.268,326.734,112.589,326.734,115.453z"/>
						</g>
						<g>
							<path style="fill:#FFFFFF;" d="M321.714,117.47h-0.043c-1.181,0-2.139-0.958-2.139-2.139V100.04
								c0-1.181,0.958-2.139,2.139-2.139h0.043c1.181,0,2.139,0.958,2.139,2.139v15.291
								C323.854,116.512,322.896,117.47,321.714,117.47z"/>
						</g>
					</g>
					<g>
						<g>
							<path style="fill:#5F45AA;" d="M359.577,115.453c0,2.864-2.322,5.186-5.186,5.186c-2.864,0-5.186-2.322-5.186-5.186
								c0-2.864,2.322-5.186,5.186-5.186C357.255,110.268,359.577,112.589,359.577,115.453z"/>
						</g>
						<g>
							<path style="fill:#FFFFFF;" d="M354.557,117.47h-0.043c-1.181,0-2.139-0.958-2.139-2.139V100.04
								c0-1.181,0.958-2.139,2.139-2.139h0.043c1.181,0,2.139,0.958,2.139,2.139v15.291
								C356.696,116.512,355.738,117.47,354.557,117.47z"/>
						</g>
					</g>
				</g>
			</g>
			<g>
				<g>
					<g>
						<rect x="135.801" y="142.016" style="fill:#C9D2F4;" width="38.411" height="32.722"/>
					</g>
					<g>
						<path style="fill:#FFFFFF;" d="M148.118,149.637c0,2.724-2.208,4.933-4.933,4.933c-2.724,0-4.933-2.208-4.933-4.933
							c0-2.724,2.208-4.933,4.933-4.933C145.91,144.704,148.118,146.913,148.118,149.637z"/>
					</g>
				</g>
				<g>
					<g>
						<rect x="175.503" y="142.016" style="fill:#DBECFD;" width="38.411" height="32.722"/>
					</g>
					<g>
						<circle style="fill:#FFFFFF;" cx="183.097" cy="149.637" r="4.933"/>
					</g>
				</g>
				<g>
					<g>
						<rect x="215.206" y="142.016" style="fill:#DBECFD;" width="38.411" height="32.722"/>
					</g>
					<g>
						<path style="fill:#FFFFFF;" d="M227.792,149.637c0,2.724-2.209,4.933-4.933,4.933c-2.724,0-4.933-2.208-4.933-4.933
							c0-2.724,2.208-4.933,4.933-4.933C225.583,144.704,227.792,146.913,227.792,149.637z"/>
					</g>
				</g>
				<g>
					<g>
						<rect x="254.908" y="142.016" style="fill:#DBECFD;" width="38.411" height="32.722"/>
					</g>
					<g>
						<circle style="fill:#FFFFFF;" cx="262.621" cy="149.637" r="4.933"/>
					</g>
				</g>
				<g>
					<g>
						<rect x="294.61" y="142.016" style="fill:#DBECFD;" width="38.411" height="32.722"/>
					</g>
					<g>
						<path style="fill:#FFFFFF;" d="M307.316,149.637c0,2.724-2.208,4.933-4.933,4.933c-2.724,0-4.933-2.208-4.933-4.933
							c0-2.724,2.209-4.933,4.933-4.933C305.108,144.704,307.316,146.913,307.316,149.637z"/>
					</g>
				</g>
				<g>
					<g>
						<rect x="334.313" y="142.016" style="fill:#DBECFD;" width="38.411" height="32.722"/>
					</g>
					<g>
						<circle style="fill:#FFFFFF;" cx="342.145" cy="149.637" r="4.933"/>
					</g>
				</g>
				<g>
					<g>
						<rect x="135.801" y="176.394" style="fill:#C9D2F4;" width="38.411" height="32.722"/>
					</g>
					<g>
						<path style="fill:#FFFFFF;" d="M148.118,184.167c0,2.724-2.208,4.933-4.933,4.933c-2.724,0-4.933-2.208-4.933-4.933
							c0-2.724,2.208-4.933,4.933-4.933C145.91,179.234,148.118,181.443,148.118,184.167z"/>
					</g>
				</g>
				<g>
					<g>
						<rect x="175.503" y="176.394" style="fill:#FDB2B0;" width="38.411" height="32.722"/>
					</g>
					<g>
						<circle style="fill:#FFFFFF;" cx="183.097" cy="184.167" r="4.933"/>
					</g>
				</g>
				<g>
					<g>
						<rect x="215.206" y="176.394" style="fill:#DBECFD;" width="38.411" height="32.722"/>
					</g>
					<g>
						<path style="fill:#FFFFFF;" d="M227.792,184.167c0,2.724-2.209,4.933-4.933,4.933c-2.724,0-4.933-2.208-4.933-4.933
							c0-2.724,2.208-4.933,4.933-4.933C225.583,179.234,227.792,181.443,227.792,184.167z"/>
					</g>
				</g>
				<g>
					<g>
						<rect x="254.908" y="176.394" style="fill:#DBECFD;" width="38.411" height="32.722"/>
					</g>
					<g>
						<circle style="fill:#FFFFFF;" cx="262.621" cy="184.167" r="4.933"/>
					</g>
				</g>
				<g>
					<g>
						<rect x="294.61" y="176.394" style="fill:#DBECFD;" width="38.411" height="32.722"/>
					</g>
					<g>
						<path style="fill:#FFFFFF;" d="M307.316,184.167c0,2.724-2.208,4.933-4.933,4.933c-2.724,0-4.933-2.208-4.933-4.933
							c0-2.724,2.209-4.933,4.933-4.933C305.108,179.234,307.316,181.443,307.316,184.167z"/>
					</g>
				</g>
				<g>
					<g>
						<rect x="334.313" y="176.394" style="fill:#DBECFD;" width="38.411" height="32.722"/>
					</g>
					<g>
						<circle style="fill:#FFFFFF;" cx="342.145" cy="184.167" r="4.933"/>
					</g>
				</g>
				<g>
					<g>
						<rect x="135.801" y="210.773" style="fill:#C9D2F4;" width="38.411" height="32.722"/>
					</g>
					<g>
						<path style="fill:#FFFFFF;" d="M148.118,218.548c0,2.724-2.208,4.933-4.933,4.933c-2.724,0-4.933-2.208-4.933-4.933
							c0-2.724,2.208-4.933,4.933-4.933C145.91,213.615,148.118,215.824,148.118,218.548z"/>
					</g>
				</g>
				<g>
					<g>
						<rect x="175.503" y="210.773" style="fill:#DBECFD;" width="38.411" height="32.722"/>
					</g>
					<g>
						<path style="fill:#FFFFFF;" d="M188.03,218.548c0,2.724-2.209,4.933-4.933,4.933c-2.724,0-4.933-2.208-4.933-4.933
							c0-2.724,2.208-4.933,4.933-4.933C185.821,213.615,188.03,215.824,188.03,218.548z"/>
					</g>
				</g>
				<g>
					<g>
						<rect x="215.206" y="210.773" style="fill:#DBECFD;" width="38.411" height="32.722"/>
					</g>
					<g>
						<path style="fill:#FFFFFF;" d="M227.792,218.548c0,2.724-2.209,4.933-4.933,4.933c-2.724,0-4.933-2.208-4.933-4.933
							c0-2.724,2.208-4.933,4.933-4.933C225.583,213.615,227.792,215.824,227.792,218.548z"/>
					</g>
				</g>
				<g>
					<g>
						<rect x="254.908" y="210.773" style="fill:#FDB2B0;" width="38.411" height="32.722"/>
					</g>
					<g>
						<path style="fill:#FFFFFF;" d="M267.554,218.548c0,2.724-2.209,4.933-4.933,4.933s-4.933-2.208-4.933-4.933
							c0-2.724,2.208-4.933,4.933-4.933S267.554,215.824,267.554,218.548z"/>
					</g>
				</g>
				<g>
					<g>
						<rect x="294.61" y="210.773" style="fill:#FDB2B0;" width="38.411" height="32.722"/>
					</g>
					<g>
						<path style="fill:#FFFFFF;" d="M307.316,218.548c0,2.724-2.208,4.933-4.933,4.933c-2.724,0-4.933-2.208-4.933-4.933
							c0-2.724,2.209-4.933,4.933-4.933C305.108,213.615,307.316,215.824,307.316,218.548z"/>
					</g>
				</g>
				<g>
					<g>
						<rect x="334.313" y="210.773" style="fill:#DBECFD;" width="38.411" height="32.722"/>
					</g>
					<g>
						<path style="fill:#FFFFFF;" d="M347.078,218.548c0,2.724-2.208,4.933-4.933,4.933s-4.933-2.208-4.933-4.933
							c0-2.724,2.208-4.933,4.933-4.933S347.078,215.824,347.078,218.548z"/>
					</g>
				</g>
				<g>
					<g>
						<rect x="135.801" y="245.152" style="fill:#C9D2F4;" width="38.411" height="32.722"/>
					</g>
					<g>
						<path style="fill:#FFFFFF;" d="M148.118,252.929c0,2.724-2.208,4.933-4.933,4.933c-2.724,0-4.933-2.208-4.933-4.933
							c0-2.724,2.208-4.933,4.933-4.933C145.91,247.996,148.118,250.204,148.118,252.929z"/>
					</g>
				</g>
				<g>
					<g>
						<rect x="175.503" y="245.152" style="fill:#DBECFD;" width="38.411" height="32.722"/>
					</g>
					<g>
						<path style="fill:#FFFFFF;" d="M188.03,252.929c0,2.724-2.209,4.933-4.933,4.933c-2.724,0-4.933-2.208-4.933-4.933
							c0-2.724,2.208-4.933,4.933-4.933C185.821,247.996,188.03,250.204,188.03,252.929z"/>
					</g>
				</g>
				<g>
					<g>
						<rect x="215.206" y="245.152" style="fill:#DBECFD;" width="38.411" height="32.722"/>
					</g>
					<g>
						<path style="fill:#FFFFFF;" d="M227.792,252.929c0,2.724-2.209,4.933-4.933,4.933c-2.724,0-4.933-2.208-4.933-4.933
							c0-2.724,2.208-4.933,4.933-4.933C225.583,247.996,227.792,250.204,227.792,252.929z"/>
					</g>
				</g>
				<g>
					<g>
						<rect x="254.908" y="245.152" style="fill:#DBECFD;" width="38.411" height="32.722"/>
					</g>
					<g>
						<path style="fill:#FFFFFF;" d="M267.554,252.929c0,2.724-2.209,4.933-4.933,4.933s-4.933-2.208-4.933-4.933
							c0-2.724,2.208-4.933,4.933-4.933S267.554,250.204,267.554,252.929z"/>
					</g>
				</g>
				<g>
					<g>
						<rect x="294.61" y="245.152" style="fill:#DBECFD;" width="38.411" height="32.722"/>
					</g>
					<g>
						<path style="fill:#FFFFFF;" d="M307.316,252.929c0,2.724-2.208,4.933-4.933,4.933c-2.724,0-4.933-2.208-4.933-4.933
							c0-2.724,2.209-4.933,4.933-4.933C305.108,247.996,307.316,250.204,307.316,252.929z"/>
					</g>
				</g>
				<g>
					<g>
						<rect x="334.313" y="245.152" style="fill:#DBECFD;" width="38.411" height="32.722"/>
					</g>
					<g>
						<path style="fill:#FFFFFF;" d="M347.078,252.929c0,2.724-2.208,4.933-4.933,4.933s-4.933-2.208-4.933-4.933
							c0-2.724,2.208-4.933,4.933-4.933S347.078,250.204,347.078,252.929z"/>
					</g>
				</g>
			</g>
		</g>
		<g>
			<g>
				<path style="fill:#5F45AA;" d="M174.796,178.492l-51.777-61.298l13.876-10.642l45.773,65.903
					c2.663,3.835,4.787,8.017,6.311,12.43l1.58,4.574c0.289,0.836-0.653,1.559-1.386,1.063l-4.008-2.712
					C181.298,185.194,177.809,182.059,174.796,178.492z"/>
			</g>
			<g>
				<path style="fill:#D2DAF9;" d="M189.561,186.566l-55.942-77.101l-1.682,0.785l58.669,79.535
					c0.002-0.105-0.008-0.213-0.047-0.325L189.561,186.566z"/>
			</g>
			<g>
				<path style="fill:#211066;" d="M126.907,114.212l-3.887,2.981l51.777,61.298c3.013,3.567,6.501,6.702,10.368,9.318l4.008,2.712
					c0.3,0.203,0.632,0.195,0.904,0.064L126.907,114.212z"/>
			</g>
			<g>
				<path style="fill:#FFFFFF;" d="M134.605,118.355c-3.945,3.025-9.349,2.599-12.072-0.951c-2.723-3.55-1.732-8.88,2.213-11.905
					c3.945-3.025,9.349-2.6,12.072,0.951C139.54,110,138.549,115.33,134.605,118.355z"/>
			</g>
			<g>
				<path style="fill:#D2DAF9;" d="M131.184,113.894c-1.207,0.926-2.86,0.795-3.693-0.291c-0.833-1.086-0.53-2.717,0.677-3.643
					c1.207-0.925,2.86-0.795,3.693,0.291C132.693,111.337,132.39,112.968,131.184,113.894z"/>
			</g>
			<g>
				<path style="fill:#D2DAF9;" d="M190.559,189.459l-1.58-4.574c-0.648-1.877-1.411-3.71-2.272-5.494
					c-0.753,2.685-2.975,4.317-5.711,5.238c1.339,1.123,2.717,2.201,4.168,3.182l4.008,2.712
					C189.906,191.018,190.848,190.295,190.559,189.459z"/>
			</g>
		</g>
		<g>
			<g>
				<g>
					<path style="fill:#FFFFFF;" d="M422.959,327.203H117.869v-8.643c0-5.728,4.643-10.371,10.371-10.371h284.347
						c5.728,0,10.371,4.643,10.371,10.371V327.203z"/>
				</g>
				<g>
					<path style="fill:#98ACEA;" d="M344.101,311.841c-0.143,1.622,1.934,2.385,3.549,2.593c20.784,2.67,41.932,2.484,62.666-0.55
						c0.853-0.125,1.748-0.272,2.426-0.805c0.678-0.533,1.029-1.585,0.518-2.279c-0.351-0.476-0.975-0.644-1.551-0.777
						c-21.148-4.895-43.383-5.036-64.591-0.409C345.805,309.899,344.219,310.503,344.101,311.841z"/>
				</g>
				<g>
					<path style="fill:#98ACEA;" d="M117.926,317.479c-0.037,0.355-0.057,0.716-0.057,1.081v8.643h305.089v-8.643
						c0-0.365-0.02-0.725-0.057-1.081H117.926z"/>
				</g>
			</g>
			<g>
				<g>
					<g>
						<path style="fill:#211066;" d="M426.263,319.716h3.771v-97.375h-3.771c-7.174,0-12.99,5.816-12.99,12.99v71.396
							C413.273,313.9,419.089,319.716,426.263,319.716z"/>
					</g>
					<g>
						<rect x="426.455" y="218.679" style="fill:#FDB2B0;" width="4.033" height="110.627"/>
					</g>
				</g>
				<g>
					<g>
						<rect x="111.859" y="327.578" style="fill:#F79494;" width="319.206" height="72.023"/>
					</g>
					<g>
						<g>
							<path style="fill:#FFFFFF;" d="M216.949,392.303H116.005v-41.757h100.943V392.303z M118.005,390.303h96.943v-37.757h-96.943
								V390.303z"/>
						</g>
						<g>
							<path style="fill:#FFFFFF;" d="M321.606,392.303H220.663v-41.757h100.944V392.303z M222.663,390.303h96.944v-37.757h-96.944
								V390.303z"/>
						</g>
						<g>
							<path style="fill:#FFFFFF;" d="M426.264,392.303H325.32v-41.757h100.943V392.303z M327.32,390.303h96.943v-37.757H327.32
								V390.303z"/>
						</g>
					</g>
					<g>
						<rect x="111.859" y="327.578" style="fill:#211066;" width="319.206" height="19.59"/>
					</g>
				</g>
				<g>
					<rect x="107.249" y="320.664" style="fill:#FDB2B0;" width="329.577" height="12.1"/>
				</g>
			</g>
		</g>
		<g>
			<g>
				<g>
					<g>
						<g>
							<path style="fill:#FFFFFF;" d="M71.722,273.848c-0.112,0-0.225-0.025-0.332-0.078c-0.372-0.184-0.524-0.635-0.34-1.007
								l2.69-5.436c0.184-0.372,0.633-0.525,1.006-0.34c0.372,0.184,0.524,0.635,0.34,1.007l-2.69,5.436
								C72.265,273.694,71.999,273.848,71.722,273.848z"/>
						</g>
					</g>
					<g>
						<g>
							<path style="fill:#FFFFFF;" d="M90.802,273.848c-0.277,0-0.543-0.153-0.674-0.418l-2.69-5.436
								c-0.184-0.372-0.032-0.822,0.34-1.007c0.371-0.185,0.822-0.032,1.006,0.34l2.69,5.436c0.184,0.372,0.032,0.822-0.34,1.007
								C91.027,273.823,90.914,273.848,90.802,273.848z"/>
						</g>
					</g>
				</g>
				<g>
					<g>
						<g>
							<path style="fill:#4FC6F1;" d="M72.975,247.984c-2.009,0.698-3.666,2.342-4.38,4.346c-0.327,0.918-0.461,1.939-0.164,2.868
								c0.297,0.928,1.088,1.734,2.055,1.856c0.674,0.085,1.347-0.157,1.958-0.455c1.821-0.886,3.374-2.313,4.411-4.052
								c0.591-0.992,1.019-2.224,0.564-3.285c-0.334-0.781-1.111-1.319-1.94-1.504S73.777,247.705,72.975,247.984z"/>
						</g>
					</g>
					<g>
						<g>
							<path style="fill:#211066;" d="M71.08,256.189c0.204,0.136,0.476,0.085,0.709,0.011c1.663-0.532,2.858-1.96,3.92-3.346
								c0.538-0.702,1.086-1.459,1.176-2.339c0.011-0.106,0.009-0.227-0.068-0.3c-0.091-0.086-0.236-0.062-0.357-0.029
								c-2.468,0.665-4.571,2.562-5.486,4.949C70.836,255.491,70.761,255.976,71.08,256.189z"/>
						</g>
					</g>
					<g>
						<g>
							<path style="fill:#4FC6F1;" d="M89.611,247.984c2.009,0.698,3.666,2.342,4.38,4.346c0.327,0.918,0.461,1.939,0.164,2.868
								c-0.297,0.928-1.088,1.734-2.055,1.856c-0.675,0.085-1.347-0.157-1.958-0.455c-1.821-0.886-3.374-2.313-4.411-4.052
								c-0.591-0.992-1.019-2.224-0.564-3.285c0.334-0.781,1.11-1.319,1.94-1.504S88.808,247.705,89.611,247.984z"/>
						</g>
					</g>
					<g>
						<g>
							<path style="fill:#211066;" d="M91.506,256.189c-0.204,0.136-0.476,0.085-0.709,0.011c-1.663-0.532-2.858-1.96-3.92-3.346
								c-0.538-0.702-1.087-1.459-1.176-2.339c-0.011-0.106-0.009-0.227,0.068-0.3c0.091-0.086,0.236-0.062,0.357-0.029
								c2.468,0.665,4.571,2.562,5.486,4.949C91.749,255.491,91.824,255.976,91.506,256.189z"/>
						</g>
					</g>
					<g>
						<g>
							
								<ellipse transform="matrix(0.7071 -0.7071 0.7071 0.7071 -160.4744 133.9035)" style="fill:#4FC6F1;" cx="81.399" cy="260.662" rx="10.842" ry="10.842"/>
						</g>
					</g>
					<g>
						<g>
							
								<ellipse transform="matrix(0.7071 -0.7071 0.7071 0.7071 -160.4744 133.9035)" style="fill:#211066;" cx="81.399" cy="260.662" rx="8.346" ry="8.346"/>
						</g>
					</g>
					<g>
						<g>
							
								<ellipse transform="matrix(0.7071 -0.7071 0.7071 0.7071 -160.9031 134.081)" style="fill:#FFFFFF;" cx="81.399" cy="261.268" rx="7.74" ry="7.74"/>
						</g>
					</g>
				</g>
			</g>
			<g>
				<g>
					<g>
						<path style="fill:#98ACEA;" d="M81.976,262.525c0,0.357-0.289,0.646-0.646,0.646l0,0c-0.357,0-0.646-0.289-0.646-0.646v-5.769
							c0-0.357,0.289-0.646,0.646-0.646l0,0c0.357,0,0.646,0.289,0.646,0.646V262.525z"/>
					</g>
				</g>
				<g>
					<g>
						<path style="fill:#98ACEA;" d="M79.635,263.861c-0.262,0.243-0.671,0.227-0.913-0.035l0,0
							c-0.243-0.262-0.227-0.671,0.035-0.913l2.606-2.416c0.262-0.243,0.671-0.227,0.913,0.035l0,0
							c0.243,0.262,0.227,0.671-0.035,0.913L79.635,263.861z"/>
					</g>
				</g>
			</g>
			<g>
				<g>
					<path style="fill:#FFFFFF;" d="M71.56,259.449c0.552-2.286,1.74-4.425,3.438-6.053c1.698-1.627,3.905-2.73,6.236-3.044
						c-2.462,0.038-4.932,0.91-6.764,2.556C72.638,254.554,71.494,256.987,71.56,259.449z"/>
				</g>
			</g>
			<g>
				<g>
					<path style="fill:#FFFFFF;" d="M73.515,248.048c-0.677,0.215-1.322,0.53-1.907,0.932c-0.401,0.276-0.803,0.645-0.848,1.129
						c0.305,0.12,0.646-0.008,0.948-0.134c0.754-0.316,1.511-0.633,2.209-1.058c0.128-0.078,0.257-0.162,0.346-0.282
						c0.09-0.12,0.133-0.284,0.075-0.422c-0.06-0.142-0.216-0.226-0.37-0.24C73.815,247.959,73.662,248.002,73.515,248.048z"/>
				</g>
			</g>
			<g>
				<g>
					<path style="fill:#FFFFFF;" d="M89.493,249.407c0.178-0.013,0.389-0.053,0.457-0.218c0.079-0.19-0.095-0.386-0.262-0.506
						c-0.958-0.685-2.294-0.8-3.355-0.289c-0.114,0.055-0.229,0.119-0.307,0.219c-0.078,0.1-0.113,0.243-0.055,0.356
						c0.067,0.13,0.227,0.178,0.371,0.209C87.375,249.404,88.439,249.482,89.493,249.407z"/>
				</g>
			</g>
		</g>
		<g>
			<g>
				<g>
					<g>
						<polygon style="fill:#211066;" points="82.067,390.452 79.707,390.452 78.346,277.145 83.428,277.145 						"/>
					</g>
					<g>
						<g>
							<polygon style="fill:#FDB2B0;" points="62.784,397.029 59.582,397.029 67.654,275.949 74.916,275.949 							"/>
						</g>
						<g>
							<polygon style="fill:#FDB2B0;" points="99.517,397.029 102.719,397.029 94.647,275.949 87.386,275.949 							"/>
						</g>
					</g>
					<g>
						<rect x="60.074" y="321.391" style="fill:#FDB2B0;" width="42.154" height="4.783"/>
					</g>
				</g>
				<g>
					<g>
						<polygon style="fill:#211066;" points="73.972,285.366 74.916,275.949 67.654,275.949 67.026,285.366 						"/>
					</g>
					<g>
						<polygon style="fill:#211066;" points="95.275,285.366 94.647,275.949 87.386,275.949 88.329,285.366 						"/>
					</g>
				</g>
			</g>
			<g>
				<rect x="57.946" y="273.258" style="fill:#FDB2B0;" width="46.41" height="6.278"/>
			</g>
		</g>
		<g>
			<g>
				<g>
					<path style="fill:#FFFFFF;" d="M378.482,392.112c0.321-1.546-0.456-3.192-1.688-4.153c-1.232-0.962-2.841-1.313-4.393-1.278
						c-2.928,0.066-3.772,1.338-6.084,3.167c-2.312,1.829-4.212,4.134-6.092,6.419c-1.224,1.487-2.448,2.975-3.672,4.463
						c-0.873,1.061-1.762,2.149-2.241,3.445c-0.479,1.295-0.778,2.724,0.046,3.825c0.852,1.139,2.677,1.535,4.083,1.5
						c2.468-0.061,6.399-0.492,9.583-3.417c3.218-2.956,4.621-6.47,7.475-9.79C376.629,394.98,378.127,393.82,378.482,392.112z"/>
				</g>
				<g>
					<path style="fill:#FDB2B0;" d="M366.025,325.667c-0.031,2.873,2.375,32.333,0.75,53.333
						c-0.855,11.045-6.841,15.894-11.206,21.862c-1.138,1.556-2.295,3.951-0.851,5.41c0.75,0.758,1.859,0.799,2.85,0.792
						c3.56-0.025,6.147-0.586,8.758-2.985c2.574-2.365,4.12-4.706,6.494-7.299c2.008-2.195,3.676-4.547,4.732-7.444
						c0.913-2.504-0.068-5.42-0.583-8.161c-1.205-6.422,0.671-12.793,2.386-18.846c2.23-7.874,3.264-12.916,5.087-18.925
						c1.823-6.009,1.5-13.106,0.584-21.301C378.751,322.48,372.298,325.29,366.025,325.667z"/>
				</g>
				<g>
					<path style="fill:#211066;" d="M369.893,400.883l-0.863-0.504c1.479-2.542,3.346-4.81,5.546-6.739l0.66,0.752
						C373.115,396.25,371.318,398.434,369.893,400.883z"/>
				</g>
				<g>
					<path style="fill:#211066;" d="M377.064,391.084l-0.865-0.502c1.364-2.354,0.864-5.301,0.38-8.149
						c-0.145-0.851-0.294-1.729-0.393-2.582c-0.7-6.083,1.249-12.588,3.135-18.88c1.143-3.814,2.224-7.418,2.757-10.93l0.988,0.15
						c-0.543,3.581-1.684,7.387-2.787,11.066c-1.856,6.194-3.776,12.6-3.099,18.478c0.095,0.826,0.242,1.692,0.384,2.529
						C378.079,385.289,378.61,388.417,377.064,391.084z"/>
				</g>
				<g>
					<path style="fill:#FFFFFF;" d="M369.316,397.707c-1.304-1.214-3.049-1.848-4.8-2.092c-1.751-0.244-1.584-0.196-3.348-0.078
						c-1.278,0.086-2.047,0.374-2.894,1.352c0,0-2.084,2.232-4.083,6.235c-0.434,0.87-0.421,2.153,0.075,2.988
						c0.564,0.95,1.642,1.446,2.691,1.75c2.807,0.812,3.94,0.688,6.628-0.469c2.688-1.157,4.967-3.271,6.35-5.887
						c0.28-0.53,0.529-1.104,0.512-1.705C370.423,398.983,369.909,398.26,369.316,397.707z"/>
				</g>
			</g>
			<g>
				<g>
					<path style="fill:#FFFFFF;" d="M314.274,395.341c-0.518,0.731-1.024,1.559-0.965,2.458c0.076,1.163,1.022,2.131,2.073,2.599
						c1.727,0.769,5.394,0.824,8.31-0.565c4.198-2.001,6.562-5.931,10.083-9c1.067-0.93,2.848-2.071,3.917-3
						c1.069-0.929,2.151-1.836,2.667-3.167c0.516-1.331,0.784-2.535-0.012-3.714c-0.31-0.46-0.758-0.857-1.297-0.955
						c-0.442-0.081-0.893,0.046-1.323,0.174c-4.526,1.352-8.95,3.136-12.991,5.612S317.034,391.447,314.274,395.341z"/>
				</g>
				<g>
					<path style="fill:#FDB2B0;" d="M336.376,322.297c-0.298,2.714-2.245,35.03-7.601,51.203c-3.25,9.813-8.656,13.401-13.343,18.62
						c-1.222,1.361-2.541,3.513-1.312,5.034c0.638,0.789,1.683,0.936,2.621,1.026c3.369,0.322,7.024,0.569,9.718-1.445
						c2.656-1.986,4.193-5.303,6.233-7.956c1.703-2.214,4.328-3.373,6.454-5.298c1.863-1.687,0.443-5.131,0.214-7.773
						c-0.538-6.19,1.834-12.032,4.023-17.589c2.847-7.229,4.741-11.681,7.028-17.186c2.287-5.505,3.624-14.24,2.105-20.3
						C346.547,320.377,342.343,322.551,336.376,322.297z"/>
				</g>
				<g>
					<path style="fill:#211066;" d="M330.126,392.497l-0.777-0.629c1.319-1.629,1.895-2.154,2.693-2.883
						c0.375-0.343,0.805-0.734,1.393-1.317c0.653-0.646,1.412-1.182,2.147-1.698c1.219-0.857,2.369-1.667,2.974-2.907
						c0.755-1.551,0.613-3.425,0.476-5.237c-0.023-0.307-0.047-0.611-0.065-0.914c-0.3-4.764,0.539-10.015,2.494-15.607
						c1.737-4.973,4.152-9.729,6.487-14.328l0.892,0.453c-2.321,4.569-4.721,9.295-6.436,14.205
						c-1.91,5.466-2.73,10.585-2.439,15.215c0.018,0.298,0.042,0.599,0.064,0.9c0.147,1.945,0.301,3.958-0.574,5.751
						c-0.717,1.472-2.028,2.396-3.296,3.288c-0.701,0.493-1.426,1.003-2.02,1.591c-0.602,0.595-1.039,0.995-1.422,1.345
						C331.923,390.448,331.397,390.928,330.126,392.497z"/>
				</g>
				<g>
					<path style="fill:#FFFFFF;" d="M313.462,397.625c0.658,0.932,1.065,0.955,2.099,1.404c1.438,0.624,2.151,0.356,3.714,0.304
						c1.826-0.061,4.361-0.315,5.833-1.417c1.472-1.102,2.734-2.282,3.961-3.66c0.583-0.655,1.207-1.434,1.094-2.31
						c-0.126-0.976-1.092-1.57-1.955-2.016c-1.415-0.731-2.847-1.457-4.379-1.88c-1.531-0.424-2.758-0.875-4.265-0.367
						c-2.349,0.792-2.195,2.647-5.04,5.443C313.575,394.058,312.712,396.563,313.462,397.625z"/>
				</g>
			</g>
			<g>
				<g>
					<path style="fill:#5F45AA;" d="M407.941,282.75c-9.2-1.688-18.858-3.041-28.167-4c-2.216-0.228-4.674-1.644-6.667-0.667
						c-1.348,0.661-1.5,3.75-5.25,6.025c-3.551,2.155-20.832,12.516-25,18.493c-5.031,7.215-6.611,16.71-9.205,24.996
						c-1.378,4.402-2.851,6.406-1.878,6.527c4,0.5,10.447,3.859,13.5,5.625c5.726,3.312,8.74,1.044,15.375,0.625
						c6.635-0.419,18.5,6.334,29.375-0.208c-0.138-6.634-2.561-12.981-2.412-19.655c0.058-2.602,2.03-3.506,4.387-3.68
						c2.733-0.202,5.507-0.143,8.168-0.909c2.518-0.725,4.612-2.305,6.595-3.963c3.862-3.228,5.431-8.496,5.276-13.468
						C411.885,293.521,409.58,287.458,407.941,282.75z"/>
				</g>
				<g>
					<path style="fill:#211066;" d="M375.457,279.682c2.59,0.55,4.735,2.862,7.269,3.765c2.4,0.855,4.9,0.374,7.347,0.21
						c4.974-0.334,13.081,0.385,18.072,1.399c0.241-0.508-0.005-1.208-0.418-1.612c-0.412-0.404-0.947-0.585-1.462-0.753
						c-5.212-1.704-13.494-3.112-18.798-4.16c-5.304-1.048-10.712-1.427-15.897-0.464c0.389,0.692,1.096,1.085,1.789,1.269
						C374.052,279.52,374.76,279.534,375.457,279.682z"/>
				</g>
				<g>
					<path style="fill:#C9D2F4;" d="M347.409,308.44c1.32-2.438,2.43-5.014,4.117-7.214c2.867-3.74,7.145-6.085,10.707-9.17
						c2.228-1.93,4.188-4.167,5.81-6.628c-7.581,7.232-18.777,10.479-24.716,19.111c-3.689,5.362-4.785,12.071-5.225,18.565
						c1.805-2.772,3.61-5.544,5.415-8.316C344.871,312.706,346.227,310.623,347.409,308.44z"/>
				</g>
				<g>
					<path style="fill:#211066;" d="M347.731,339.041c2.327,0.85,4.962,0.826,7.273-0.067c1.014-2.875,1.488-5.94,1.392-8.987
						c-0.083-2.623-0.583-5.268-0.117-7.851c0.797-4.424,4.329-8.121,4.533-12.612c-2.576,3.322-5.184,6.699-6.754,10.598
						C351.557,326.331,351.749,333.689,347.731,339.041z"/>
				</g>
				<g>
					<path style="fill:#211066;" d="M409.024,288.75c1.382,6.326-3.892,11.75-8.917,15.833c-3.708,3.014-4.75,3.667-9.833,6.917
						c-1.348,0.862-3.446,2.88-4.5,4.083c-1.379,1.574-1.423,4.416-1.512,6.507c-0.217,5.119-0.51,10.793-2.113,15.66
						c1.545,0.011,3.219,0.531,4.708,0.25c0.096-5.407-1.211-10.812-1.115-16.219c0.025-1.411,0.14-3.273,1.094-4.313
						c0.771-0.841,2.506-0.841,3.621-1.087c3.008-0.663,6.068-1.123,9.005-2.05c2.937-0.927,5.795-2.371,7.839-4.675
						c2.198-2.477,3.297-5.804,3.459-9.111C410.922,297.238,410.12,291.875,409.024,288.75z"/>
				</g>
				<g>
					<path style="fill:#C9D2F4;" d="M372.119,304.859c-1.429,0.854-2.939,1.604-4.193,2.699c-1.253,1.096-2.249,2.626-2.244,4.291
						c0.005,1.665,1.282,3.367,2.946,3.427c0.346-3.322,2.363-6.245,4.698-8.633c2.335-2.388,5.041-4.398,7.286-6.87
						c2.246-2.472,4.057-5.575,4.036-8.915C382.011,296.645,377.578,301.597,372.119,304.859z"/>
				</g>
			</g>
			<g>
				<g>
					<path style="fill:#4FC6F1;" d="M381.076,220.199c-4.01,0.095-8.439,3.206-10.911,6.295c-2.826,3.531-5.118,7.81-6.313,11.554
						c-3.792,11.879-11.217,22.623-21.074,30.492c3.945,1.799,7.891,3.599,11.836,5.398c10.332-9.474,14.971-16.502,21.236-29.431
						c1.993-4.113,5.434-7.588,6.309-12.058C383.034,227.979,385.196,222.316,381.076,220.199z"/>
				</g>
				<g>
					<path style="fill:#211066;" d="M364.167,247.75c-5,8.75-12.5,17.417-9.39,24.49c9.164-8.703,13.633-15.651,19.544-27.85
						c1.993-4.113,4.256-5.374,2.93-7.807C371.756,233.098,368.417,237.917,364.167,247.75z"/>
				</g>
			</g>
			<g>
				<g>
					<g>
						<path style="fill:#4FC6F1;" d="M409.774,279.563c-0.19-9.031-7.325-19.742-3.153-27.69c5.035-9.59,4.703-19.245,0.821-29.472
							c-8.23-5.687-18.313-5.465-25.708-2.946c-2.052,0.699-4.119,1.046-6.246,2.872c-1.872,1.606-3.712,6.4-4.038,8.862
							c-0.91,6.879-2.636,10.01-3.838,14.158c-1.058,3.653-1.328,5.389,0.666,8.666c6.832,11.227,1.988,18.977,5.19,21.046
							C383.452,274.056,398.418,278.989,409.774,279.563z"/>
					</g>
					<g>
						<path style="fill:#211066;" d="M393.988,253.283c-3.601,8.804,1.844,13.13,0.766,24.208c1.789,0.132,11.971,0.75,13.645,0.822
							c-0.136-9.044-6.186-17.631-1.848-25.618c4.279-7.877,1.971-16.579-0.201-25.09
							C400.183,235.09,397.285,245.223,393.988,253.283z"/>
					</g>
					<g>
						<path style="fill:#211066;" d="M384.031,236.818c-1.46,0-2.764-0.269-3.936-0.808c-3.142-1.444-5.418-5.159-5.413-8.833
							c0-0.207,0.168-0.375,0.375-0.375c0,0,0,0,0.001,0c0.207,0.001,0.374,0.169,0.374,0.376c-0.005,3.395,2.088,6.823,4.976,8.15
							c1.88,0.863,4.151,0.97,6.947,0.322c6.99-1.62,13.165-6.692,16.518-13.57c0.09-0.186,0.316-0.264,0.501-0.172
							c0.186,0.091,0.264,0.315,0.173,0.501c-3.451,7.079-9.815,12.301-17.022,13.971
							C386.269,236.672,385.107,236.818,384.031,236.818z"/>
					</g>
					<g>
						<path style="fill:#FFFFFF;" d="M371.144,260.631c-0.727-1.277-1.48-2.438-2.146-3.463c-1.535-2.364-2.748-4.232-2.863-6.197
							c-0.183-3.099,0.583-5.24,1.743-8.48c1.132-3.162,2.682-7.493,3.999-14.868l0.984,0.176
							c-1.332,7.458-2.898,11.834-4.042,15.029c-1.118,3.124-1.857,5.188-1.687,8.084c0.101,1.702,1.249,3.471,2.704,5.71
							c0.672,1.036,1.435,2.21,2.176,3.514L371.144,260.631z"/>
					</g>
				</g>
				<g>
					<g>
						<path style="fill:#DBECFD;" d="M383.102,274.121c-2.452-0.496-8.509-1.531-10.722-0.466c-0.478,0.23-0.387,2.851-1.43,5.592
							c12.401,0.77,25.9,0.809,37.95,4.802c-1.31-2.839,0.51-2.625-0.678-5.131C400.985,277.453,390.339,275.587,383.102,274.121z"
							/>
					</g>
					<g>
						<g>
							<path style="fill:#211066;" d="M408.495,279.061c-4.391-0.254-9.417-0.889-14.739-1.561
								c-7.621-0.964-15.484-1.961-22.005-1.869l-0.014-1c6.571-0.091,14.488,0.908,22.144,1.877
								c5.305,0.671,10.315,1.304,14.672,1.556L408.495,279.061z"/>
						</g>
					</g>
				</g>
			</g>
			<g>
				<path style="fill:#211066;" d="M370.457,267.565c7.33,4.585,15.222,7.782,23.236,9.412c1.583,0.322,3.185,0.584,4.754,0.453
					c1.569-0.13,3.117-0.679,4.267-1.832c-10.887-3.814-21.875-7.097-32.923-9.835L370.457,267.565z"/>
			</g>
			<g>
				<g>
					<path style="fill:#FFFFFF;" d="M357.182,261.661c-0.341,0.079-0.711-0.049-0.919-0.351c-0.269-0.388-0.164-0.916,0.234-1.178
						l12.346-8.158c0.397-0.264,0.936-0.161,1.205,0.227c0.269,0.389,0.164,0.916-0.233,1.178l-12.348,8.158
						C357.378,261.598,357.281,261.638,357.182,261.661z"/>
				</g>
			</g>
			<g>
				<path style="fill:#211066;" d="M386.598,219.127c-2.692,0.231-5.499,0.808-7.525,2.556c-1.862,1.607-2.841,4.141-2.531,6.552
					c0.31,2.41,1.901,4.628,4.113,5.733c2.781,1.39,6.169,0.991,9.105-0.051c4.561-1.619,8.597-4.783,10.895-8.963
					c0.569-1.036,1.032-2.3,0.505-3.357c-0.531-1.064-1.839-1.48-3.02-1.735C394.359,219.045,390.453,218.796,386.598,219.127z"/>
			</g>
			<g>
				<path style="fill:#FDB2B0;" d="M390.49,263.26c-6.119-0.2-12.234-0.543-18.336-1.03c-0.965-0.814-1.848-1.72-2.621-2.711
					c-0.669-0.856-1.342-1.832-2.398-2.138c-0.65-0.189-1.347-0.088-2.017,0.014c-2.677,0.408-5.353,0.815-8.03,1.223
					c-0.716,0.109-1.611,0.4-1.647,1.108c0.575,0.58,1.359,0.959,2.18,1.053c-0.556,0.147-0.707,0.915-0.422,1.403
					c0.286,0.489,0.837,0.758,1.357,1c0.52,0.242,1.071,0.513,1.354,1.003c-0.345-0.04-0.599,0.378-0.513,0.707
					c0.086,0.33,0.386,0.56,0.686,0.733c0.3,0.172,0.628,0.321,0.847,0.585c0.206,0.248,0.289,0.569,0.43,0.857
					c0.47,0.963,1.525,1.491,2.509,1.952c0.95,0.445,1.954,0.901,3.005,0.835c0.744-0.047,1.424-0.35,2.103-0.67
					c6.649,1.868,13.415,3.336,20.256,4.341C389.938,270.17,390.519,266.785,390.49,263.26z"/>
				<g>
					<g>
						<path style="fill:#4FC6F1;" d="M407.018,222.288c-1.738,1.305-3.654,4.386-4.563,6.209c-1.205,2.42-2.699,9.009-2.522,11.633
							c0.676,10.005,0.294,13.304,0.167,23.33c-3.204-0.026-6.408-0.096-9.611-0.2c0.029,3.525-1.251,7.216-1.957,10.572
							c5.179,0.761,11.257,1.664,16.813,2.069c2.252,0.164,4.68-1.021,5.194-3.171c2.265-9.483,2.265-13.445,3.576-22.532
							c1.182-8.197,2.969-17.801-2.609-24.915c-0.53-0.675-1.075-1.205-1.795-1.685C409.406,223.395,407.335,222.05,407.018,222.288
							z"/>
					</g>
					<g>
						<path style="fill:#211066;" d="M388.3,273.723c-0.047,0-0.095-0.009-0.141-0.027c-0.192-0.078-0.285-0.297-0.207-0.488
							c1.3-3.205,1.959-6.721,1.905-10.166c-0.003-0.207,0.162-0.378,0.369-0.381c0.183-0.005,0.378,0.162,0.381,0.369
							c0.055,3.545-0.623,7.162-1.96,10.459C388.588,273.635,388.448,273.723,388.3,273.723z"/>
					</g>
					<path style="fill:#FFFFFF;" d="M404.608,231.026l-0.518-0.855c-3.059,1.854-4.198,8.085-4.475,9.95
						c-0.341,2.297-0.109,5.154,0.158,8.462c0.35,4.327,0.732,9.209,0.037,14.499c-3.196,0.105-6.408-0.005-9.583-0.342
						l-0.105,0.994c2.459,0.262,4.94,0.393,7.418,0.393c1.686,0,3.371-0.061,5.047-0.182l-0.072-0.998
						c-0.562,0.041-1.127,0.058-1.69,0.084c0.677-5.323,0.296-10.201-0.054-14.529c-0.263-3.247-0.49-6.052-0.167-8.235
						C401.142,236.648,402.475,232.32,404.608,231.026z"/>
				</g>
			</g>
			<g>
				<g>
					<g>
						<path style="fill:#FDB2B0;" d="M401.039,219.924c-0.799-0.367-1.689-0.479-2.565-0.596c-1.145-4.873-1.618-9.143-1.645-14.031
							c-2.562,0.519-6.014,1.734-8.577,2.253c0.084,4.018-0.707,7.107-2.436,10.932c-1.96,0.372-3.82,1.129-5.29,2.429
							c-2.294,2.029-3.327,5.586-1.785,8.208c0.863,1.467,2.404,2.477,4.062,2.961c1.658,0.484,3.428,0.484,5.145,0.276
							c5.516-0.667,10.785-3.574,13.923-8.061c0.493-0.705,0.951-1.516,0.847-2.364
							C402.608,221.036,401.874,220.308,401.039,219.924z"/>
					</g>
				</g>
				<g>
					<path style="fill:#211066;" d="M395.375,205.639c-2.319,0.594-5.018,1.485-7.122,1.911c0.069,3.312-0.466,6.618-1.621,9.821
						C391.236,215.153,394.586,211.023,395.375,205.639z"/>
				</g>
				<g>
					<path style="fill:#FDB2B0;" d="M398.185,195.307c-3.473-3.337-8.894-4.584-13.523-3.109c-2.303,0.734-4.664,2.624-4.336,4.971
						c0.108,0.771,0.505,1.506,0.451,2.282c-0.04,0.583-0.479,1.03-0.858,1.441c-1.586,1.715-1.195,4.789-0.626,6.812
						c0.361,1.282,0.986,2.477,1.339,3.754c0.333,1.209,0.932,2.236,2.087,2.836c1.615,0.838,3.259,0.167,4.851-0.392
						c1.923-0.674,3.995-1.458,5.789-2.411c1.621-0.857,3.009-1.977,4.253-3.331c1.773-1.932,3.426-4.227,3.462-6.823
						C401.107,199.056,399.85,196.906,398.185,195.307z"/>
				</g>
				<g>
					<g>
						<path style="fill:#211066;" d="M380.499,197.813c-0.071,0-0.143-0.02-0.206-0.062c-0.173-0.114-0.221-0.346-0.108-0.519
							c0.437-0.666,0.897-0.997,1.543-1.342c0.181-0.099,0.408-0.029,0.508,0.154c0.098,0.183,0.028,0.41-0.154,0.507
							c-0.564,0.302-0.916,0.554-1.27,1.092C380.74,197.753,380.621,197.813,380.499,197.813z"/>
					</g>
					<g>
						<path style="fill:#211066;" d="M393.335,198.002c-0.11,0-0.221-0.049-0.294-0.143c-1.012-1.281-2.532-2.15-4.17-2.385
							c-0.205-0.029-0.348-0.219-0.318-0.424c0.028-0.205,0.221-0.352,0.424-0.318c1.827,0.261,3.522,1.231,4.652,2.662
							c0.129,0.163,0.101,0.398-0.061,0.527C393.499,197.976,393.417,198.002,393.335,198.002z"/>
					</g>
					<g>
						<path style="fill:#211066;" d="M389.013,198.207c-0.21,0.427-0.287,0.916-0.22,1.385c0.023,0.161,0.082,0.343,0.237,0.402
							c0.099,0.038,0.213,0.013,0.303-0.041c0.09-0.055,0.16-0.135,0.225-0.217c0.135-0.169,0.26-0.351,0.323-0.557
							c0.063-0.206,0.058-0.439-0.056-0.623C389.711,198.372,389.224,198.148,389.013,198.207z"/>
					</g>
					<g>
						<path style="fill:#211066;" d="M381.443,198.729c-0.124,0.318-0.153,0.671-0.084,1.004c0.022,0.108,0.064,0.226,0.164,0.277
							c0.14,0.072,0.311-0.025,0.417-0.141c0.276-0.299,0.369-0.748,0.233-1.128c-0.064-0.181-0.222-0.367-0.415-0.338
							C381.599,198.426,381.5,198.582,381.443,198.729z"/>
					</g>
					<g>
						<path style="fill:#211066;" d="M383.068,206.137c-0.075,0-0.15-0.022-0.216-0.068c-0.275-0.193-0.592-0.334-0.928-0.483
							l-0.231-0.104c-0.444-0.203-0.905-0.443-1.26-0.831c-0.425-0.465-0.598-1.076-0.451-1.596c0.185-0.654,0.765-1.013,1.277-1.33
							l0.165-0.102c0.652-0.412,1.101-0.872,1.333-1.368c0.264-0.564,0.226-1.219-0.095-1.631c-0.127-0.163-0.098-0.399,0.065-0.526
							c0.163-0.126,0.399-0.098,0.526,0.065c0.497,0.638,0.568,1.584,0.183,2.41c-0.294,0.628-0.837,1.195-1.612,1.685l-0.171,0.106
							c-0.415,0.256-0.845,0.521-0.949,0.895c-0.076,0.269,0.035,0.616,0.281,0.887c0.265,0.289,0.646,0.485,1.018,0.655
							l0.226,0.101c0.354,0.157,0.72,0.319,1.055,0.555c0.169,0.119,0.21,0.353,0.091,0.522
							C383.302,206.081,383.185,206.137,383.068,206.137z"/>
					</g>
					<g>
						<path style="fill:#211066;" d="M381.82,207.46c1.143,0.164,2.271,0.201,3.416,0.049c-0.183,0.413-0.331,0.802-0.629,1.145
							c-0.298,0.344-0.629,0.722-1.333,0.66c-0.672-0.059-0.818-0.246-1.025-0.559C382.043,208.443,381.881,208.004,381.82,207.46z"
							/>
					</g>
				</g>
				<g>
					<path style="fill:#211066;" d="M405.7,182.767c1.15-0.637,1.956-1.908,2.006-3.221c0.067-1.759-1.078-3.447-2.661-4.286
						c-1.583-0.838-3.525-0.889-5.246-0.373c-0.723,0.217-1.423,0.529-2.172,0.624c-1.175,0.149-2.345-0.248-3.526-0.327
						c-2.849-0.19-5.706,1.713-6.569,4.375c-0.273,0.841-0.36,1.759-0.105,2.605c0.255,0.846,0.884,1.607,1.733,1.904
						c-0.839,0.408-1.488,1.158-1.795,2.023c-0.214,0.128-0.426,0.257-0.636,0.387c-2.684,1.652-5.596,3.605-6.312,6.627
						c-0.202,0.851-0.201,1.718-0.069,2.577c0.757-0.963,6.078-7.001,16.464-1.058c0,0,0.094,2.713,1.045,4.831
						c0.293-0.314,0.687-0.539,1.12-0.577c0.716-0.063,1.451,0.356,1.747,0.996c0.306,0.66,0.154,1.438-0.126,2.109
						c-0.28,0.671-0.681,1.294-0.886,1.99c-0.136,0.461-0.188,0.956-0.439,1.367c-0.304,0.498-0.879,0.807-1.469,0.866
						c-0.236,0.023-0.472,0.001-0.704-0.043c-0.239,1.5-0.353,2.982-0.129,3.994c2.142-0.395,4.048-1.805,5.228-3.617
						c1.314-2.018,1.805-4.469,1.775-6.862c-0.019-1.558-0.281-3.103-0.717-4.601c1.176-0.724,2.086-2.056,2.299-4.166
						c0.052-0.518,0.015-1.049-0.158-1.542c-0.793-2.255-3.103-3.594-4.676-5.417c-0.672-0.78-1.241-1.788-0.999-2.78
						c0.251-1.029,1.389-1.717,2.468-1.639c1.079,0.078,2.038,0.812,2.548,1.745c-1.263,0.593-1.912,2.202-1.403,3.479
						c0.689-0.243,1.531,0.022,1.945,0.614c0.414,0.592,0.362,1.455-0.119,1.995c1.729-0.95,1.166-2.206,0.279-3.211
						C405.054,183.719,405.186,183.052,405.7,182.767z"/>
					<g>
						<path style="fill:#FDB2B0;" d="M395.185,187.692c0.782-0.805,0.787-2.498-0.127-3.156c-0.915-0.658-2.549-0.495-3.682-0.571
							c-1.199-0.081-2.397-0.162-3.596-0.243c-0.747-0.05-1.515-0.099-2.229,0.122s-1.372,0.774-1.478,1.5
							c-0.118,0.81,0.495,1.588,1.251,1.937c0.757,0.349,1.625,0.359,2.461,0.336c1.178-0.032,2.371-0.118,3.523,0.125
							c0.665,0.14,1.307,0.388,1.983,0.47C393.966,188.293,394.716,188.175,395.185,187.692z"/>
					</g>
					<g>
						<path style="fill:#211066;" d="M387.18,187.018c0.553,0.626,1.535,0.488,2.321,0.799c0.936,0.37,1.98,0.352,2.78,0.62
							c-0.413-0.689-0.799-1.97-0.6-2.745c0.2-0.774,0.871-1.684,1.569-2.099c-0.978-0.293-2.124-0.369-3.148-0.379
							c-1.023-0.01-2.097,0.304-2.772,1.056C386.655,185.023,386.511,186.261,387.18,187.018z"/>
					</g>
					<g>
						<path style="fill:#211066;" d="M393.971,187.879c-0.076,0-0.152-0.023-0.219-0.07c-0.579-0.416-0.863-1.184-0.691-1.868
							c0.172-0.682,0.786-1.23,1.494-1.333c0.196-0.03,0.395,0.112,0.425,0.317c0.03,0.205-0.112,0.395-0.317,0.425
							c-0.408,0.06-0.776,0.385-0.875,0.774c-0.098,0.386,0.071,0.838,0.401,1.075c0.168,0.121,0.207,0.355,0.086,0.523
							C394.202,187.825,394.087,187.879,393.971,187.879z"/>
					</g>
				</g>
			</g>
			<g>
				<g>
					<polygon style="fill:#5F45AA;" points="362.26,275.319 349.409,257.485 370.115,264.093 					"/>
				</g>
				<g>
					<polygon style="fill:#211066;" points="349.409,257.485 356.41,267.201 369.811,263.996 					"/>
				</g>
				<g>
					<polygon style="fill:#FFFFFF;" points="362.26,275.319 339.386,274.807 330.908,260.501 349.79,257.851 					"/>
				</g>
				<g>
					<path style="fill:#211066;" d="M330.93,261.096c-0.243,0-0.456-0.178-0.493-0.426c-0.041-0.273,0.147-0.527,0.42-0.568
						l18.692-2.805c0.271-0.04,0.527,0.146,0.568,0.42c0.041,0.273-0.146,0.527-0.42,0.568l-18.692,2.805
						C330.979,261.094,330.955,261.096,330.93,261.096z"/>
				</g>
			</g>
			<g>
				<path style="fill:#FDB2B0;" d="M352.503,272.471c-0.257-0.144-0.922,0.089-1.15,0.273c-0.413,0.331-0.788,0.667-1.194,0.998
					c-0.003-0.317-0.031-0.633-0.099-0.947c-1.253,0.219-1.218,1.17-1.615,1.905c-0.031,0.058-0.063,0.116-0.093,0.174
					c-0.699,0.148-1.445,0.132-2.176,0.155c0.626-0.719,1.515-1.393,1.994-2.189c0.703-1.169,0.983-1.455,1.586-2.782
					c0.086-0.19,0.004-0.677-0.2-0.738c-0.154-0.046-0.985-0.064-1.589,0.651c-1.797,2.125-2.913,2.879-4.159,3.715
					c-0.093-0.036-0.183-0.078-0.277-0.111c0.45-0.6,0.81-1.272,1.152-1.941c0.487-0.952,1.282-1.778,1.769-2.729
					c0.13-0.254,0.27-0.576,0.086-0.84c-0.685-0.986-2.35,0.762-2.801,1.233c-0.676,0.704-1.302,1.45-2.021,2.114
					c-0.808,0.747-1.729,1.423-2.746,1.839c-0.483-0.343-1.029-0.617-1.399-1.073c-0.457-0.566-0.564-1.319-0.797-2.004
					c-0.233-0.685-0.714-1.398-1.448-1.478c0.341,1.43-0.118,2.8,0.082,4.255c0.102,0.745,0.544,1.402,1.077,2.006
					c0.378,0.428,0.647,0.933,0.874,1.453c0.328,0.751,0.877,1.393,1.628,1.765c1.058,0.524,2.305,0.475,3.46,0.153
					c1.766-0.064,3.532-0.128,5.299-0.192c0.514-0.019,1.083-0.06,1.439-0.423c0.219-0.224,0.315-0.532,0.4-0.832
					c0.05-0.053,0.102-0.105,0.151-0.159c0.553-0.612,1.106-1.225,1.659-1.837c0.424-0.47,0.853-0.945,1.158-1.496
					c0.083-0.15,0.158-0.31,0.166-0.481C352.726,272.74,352.654,272.556,352.503,272.471z"/>
			</g>
		</g>
	</g>
</g>
</svg>
